<?xml version="1.0" encoding="utf-8"?>
<!-- Generator: Adobe Illustrator 16.0.4, SVG Export Plug-In . SVG Version: 6.00 Build 0)  -->
<!DOCTYPE svg PUBLIC "-//W3C//DTD SVG 1.1//EN" "http://www.w3.org/Graphics/SVG/1.1/DTD/svg11.dtd">
<svg version="1.1" id="Layer_1" xmlns="http://www.w3.org/2000/svg" xmlns:xlink="http://www.w3.org/1999/xlink" x="0px" y="0px"
	 width="30px" height="30px" viewBox="0 0 30 30" enable-background="new 0 0 30 30" xml:space="preserve">
<circle fill="#83A0A8" cx="14.499" cy="15.432" r="13.507"/>
<path fill="#FFFFFF" d="M23.262,11.499l-1.934-1.935c-0.521-0.521-1.373-0.521-1.892,0l-4.617,4.615
	c-0.298,0.299-0.562,0.797-0.649,1.209l-0.456,2.28c-0.08,0.407,0.038,0.815,0.311,1.093c0.278,0.279,0.674,0.395,1.078,0.316
	l2.32-0.428c0.416-0.076,0.918-0.34,1.223-0.644l4.615-4.615C23.782,12.87,23.782,12.021,23.262,11.499z M18.014,17.376
	c-0.174,0.173-0.513,0.354-0.754,0.397l-0.884,0.162c-0.031-0.172-0.097-0.341-0.229-0.472l-0.812-0.812
	c-0.131-0.131-0.292-0.195-0.459-0.228l0.171-0.86c0.05-0.24,0.231-0.579,0.402-0.753l3.216-3.216l2.562,2.563L18.014,17.376z
	 M21.861,13.528l-2.566-2.562l0.77-0.77c0.176-0.175,0.459-0.173,0.631,0l1.936,1.933c0.174,0.176,0.174,0.457,0,0.631
	L21.861,13.528z"/>
<path fill="#FFFFFF" d="M12,20H6c-0.276,0-0.5-0.224-0.5-0.5S5.724,19,6,19h6c0.276,0,0.5,0.224,0.5,0.5S12.276,20,12,20z"/>
<path fill="#FFFFFF" d="M12,17H6c-0.276,0-0.5-0.224-0.5-0.5S5.724,16,6,16h6c0.276,0,0.5,0.224,0.5,0.5S12.276,17,12,17z"/>
<path fill="#FFFFFF" d="M14,14H6c-0.276,0-0.5-0.224-0.5-0.5S5.724,13,6,13h8c0.276,0,0.5,0.224,0.5,0.5S14.276,14,14,14z"/>
</svg>
